<svg width="1200" height="630" viewBox="0 0 1200 630" xmlns="http://www.w3.org/2000/svg" role="img" aria-label="A CodeTV × Webflow × GSAP Challenge">
  <defs>
    <!-- Webflow blue glow, top-right -->
    <radialGradient id="blueGlow" cx="0.85" cy="-0.05" r="0.55">
      <stop offset="0%" stop-color="#146EF5" stop-opacity="0.32"/>
      <stop offset="100%" stop-color="#146EF5" stop-opacity="0"/>
    </radialGradient>

    <!-- GSAP green glow, bottom-left -->
    <radialGradient id="greenGlow" cx="0.05" cy="1.05" r="0.55">
      <stop offset="0%" stop-color="#0AE448" stop-opacity="0.22"/>
      <stop offset="100%" stop-color="#0AE448" stop-opacity="0"/>
    </radialGradient>

    <!-- Astro rocket gradient (pink → red) — preserved from original asset -->
    <linearGradient id="astroGrad" x1="61" y1="136" x2="104.622" y2="115.39" gradientUnits="userSpaceOnUse">
      <stop stop-color="#D83333"/>
      <stop offset="1" stop-color="#F041FF"/>
    </linearGradient>
  </defs>

  <!-- Background -->
  <rect width="1200" height="630" fill="#080808"/>
  <rect width="1200" height="630" fill="url(#blueGlow)"/>
  <rect width="1200" height="630" fill="url(#greenGlow)"/>

  <!-- Eyebrow: THE CHALLENGE (GSAP green, mono, dev-doc treatment) -->
  <g transform="translate(600, 165)">
    <line x1="-110" y1="-5" x2="-86" y2="-5" stroke="#0AE448" stroke-width="1.6" opacity="0.85"/>
    <text x="0" y="0" text-anchor="middle" fill="#0AE448"
          font-family="ui-monospace, 'SF Mono', 'Menlo', Consolas, monospace"
          font-size="16" font-weight="500" letter-spacing="3.2">THE CHALLENGE</text>
    <line x1="86" y1="-5" x2="110" y2="-5" stroke="#0AE448" stroke-width="1.6" opacity="0.85"/>
  </g>

  <!-- CodeTV centerpiece — original wordmark, viewBox 109 × 28, scaled to ~130px tall -->
  <g transform="translate(347, 215) scale(4.643)" fill="#FFFFFF">
    <path d="M17 10h-5V8h-1V7H6v1H5v9h1v1h5v-1h1v-2h5v4h-1v2h-1v1h-2v1H4v-1H2v-1H1v-2H0V6h1V4h1V3h2V2h9v1h2v1h1v2h1v4Z"/>
    <path fill-rule="evenodd" clip-rule="evenodd" d="M24 2h9v1h2v1h1v2h1v13h-1v2h-1v1h-2v1h-9v-1h-2v-1h-1v-2h-1V6h1V4h1V3h2V2Zm2 6V7h5v1h1v9h-1v1h-5v-1h-1V8h1ZM40 23V2h12v1h2v1h1v2h1v13h-1v2h-1v1h-2v1H40ZM50 7h-5v11h5v-1h1V8h-1V7Z"/>
    <path d="M59 2v21h16v-5H64v-3h9v-5h-9V7h11V2H59Z"/>
    <path fill-rule="evenodd" clip-rule="evenodd" d="M82 0h20v1h2v1h1v2h1v17h-1v2h-1v1h-2v1H82v-1h-2v-1h-1v-2h-1V4h1V2h1V1h2V0Zm-1 11V7h10v4h-3v8h-4v-8h-3Zm11 4V7h4v6h1v1h1v-1h1V7h4v8h-1v1h-1v1h-1v1h-1v1h-3v-1h-1v-1h-1v-1h-1v-1h-1Z"/>
  </g>

  <!-- "SPONSORS" connector -->
  <g transform="translate(600, 440)">
    <line x1="-230" y1="0" x2="-60" y2="0" stroke="rgba(255,255,255,0.12)" stroke-width="1"/>
    <text x="0" y="5" text-anchor="middle" fill="rgba(255,255,255,0.55)"
          font-family="ui-monospace, 'SF Mono', monospace"
          font-size="11" font-weight="500" letter-spacing="3.5">SPONSORS</text>
    <line x1="60" y1="0" x2="230" y2="0" stroke="rgba(255,255,255,0.12)" stroke-width="1"/>
  </g>

  <!-- Three sponsor logos row — visual heights matched, vertically centered on y=505 -->
  <!--
    Visible widths after compensating for each viewBox's empty padding:
      Webflow Full Logo (Blue+White): scale 0.199, visible 215
      GSAP wordmark (green):           scale 1.2,   visible 98
      Astro logo (rocket+wordmark):   scale 0.36,  visible 137 (bumped up for visual parity)
    Gaps of 60px between visible content; × glyphs centered in each gap.
    Row total visible: 215 + 60 + 98 + 60 + 137 = 570
    Webflow visible content starts at x=315.
  -->

  <!-- Webflow Full Logo (Blue mark + white wordmark) — brand-compliant, no recoloring -->
  <g transform="translate(315, 487) scale(0.199)">
    <path fill-rule="evenodd" clip-rule="evenodd"
          d="M288.606 0.684082L196.515 180.711H110.016L148.556 106.1H146.827C115.032 147.374 67.5931 174.545 0 180.711V107.133C0 107.133 43.2409 104.579 68.661 77.8531H0V0.685504H77.1676V64.1547L78.8996 64.1476L110.433 0.685504H168.793V63.7523L170.525 63.7495L203.241 0.684082H288.606Z"
          fill="#146EF5"/>
    <path d="M790.78 160.84H815.632V18.1868H790.78V160.84Z" fill="white"/>
    <path fill-rule="evenodd" clip-rule="evenodd"
          d="M653.772 159.383C659.174 161.629 664.666 162.751 670.25 162.751C679.475 162.751 687.728 160.506 695.011 156.015C702.294 151.524 707.938 145.333 711.944 137.444C715.95 129.493 717.952 120.481 717.952 110.406C717.952 100.331 715.889 91.3188 711.762 83.3683C707.635 75.4179 701.9 69.2578 694.556 64.8881C687.213 60.4577 678.868 58.2728 669.521 58.3335C663.574 58.3335 657.869 59.4866 652.407 61.7929C646.944 64.0991 642.393 67.3764 638.751 71.6247C638.47 71.9482 638.197 72.2749 637.932 72.6048V18.2778H612.988V160.84H637.75L637.7 147.522C638.341 148.307 639.025 149.074 639.753 149.824C643.698 153.891 648.371 157.077 653.772 159.383ZM679.262 136.351C675.196 138.839 670.553 140.084 665.334 140.084C660.175 140.084 655.441 138.809 651.132 136.26C646.823 133.65 643.394 130.1 640.845 125.609C638.357 121.118 637.113 116.02 637.113 110.315C637.052 104.61 638.266 99.512 640.754 95.0209C643.303 90.4691 646.732 86.9491 651.041 84.4608C655.35 81.9118 660.114 80.6676 665.334 80.7283C670.553 80.6676 675.196 81.8814 679.262 84.3697C683.389 86.7973 686.545 90.287 688.73 94.8388C690.975 99.3299 692.098 104.489 692.098 110.315C692.098 116.141 690.975 121.3 688.73 125.791C686.545 130.282 683.389 133.802 679.262 136.351Z"
          fill="white"/>
    <path d="M324.611 26.8352H353.014L378.422 119.625L405.451 26.8352H429.12L458.434 117.763L482.831 26.8352H508.867L470.45 160.84H445.961L416.154 72.0107L388.791 160.84H364.029L324.611 26.8352Z" fill="white"/>
    <path fill-rule="evenodd" clip-rule="evenodd"
          d="M550.811 163.207C540.918 163.267 531.997 161.082 524.046 156.652C516.157 152.161 509.936 145.94 505.384 137.99C500.893 130.039 498.647 120.966 498.647 110.77C498.647 100.878 500.954 91.9257 505.566 83.9145C510.178 75.9034 516.43 69.6523 524.319 65.1612C532.209 60.6701 541.009 58.4245 550.72 58.4245C561.644 58.4245 571.203 60.8522 579.396 65.7074C587.65 70.5626 593.81 77.451 597.876 86.3725C602.003 95.2333 603.49 105.399 602.337 116.869H524.358C524.576 121.439 525.716 125.597 527.779 129.341C530.085 133.468 533.302 136.685 537.428 138.991C541.555 141.297 546.168 142.45 551.266 142.45C555.15 142.39 558.761 141.722 562.099 140.448C565.437 139.113 568.259 137.322 570.566 135.077C572.932 132.831 574.601 130.282 575.572 127.43H601.609C600.031 134.409 596.875 140.63 592.141 146.092C587.407 151.493 581.459 155.711 574.298 158.746C567.136 161.78 559.307 163.267 550.811 163.207ZM527.87 91.8346C526.415 94.3709 525.408 97.102 524.847 100.028H576.537C576.162 96.3314 575.021 92.9631 573.114 89.9229C570.93 86.3422 567.956 83.5807 564.193 81.6387C560.43 79.6359 556.182 78.6345 551.448 78.6345C546.411 78.6345 541.829 79.7876 537.702 82.0938C533.575 84.4001 530.297 87.647 527.87 91.8346Z"
          fill="white"/>
    <path d="M736.25 60.5184C736.25 52.3858 738.102 45.1637 741.804 38.8519C745.506 32.4794 750.695 27.5331 757.371 24.0131C764.107 20.4323 771.967 18.5813 780.949 18.4599V40.5815C776.761 40.6422 773.181 41.5223 770.207 43.2216C767.294 44.8602 765.048 47.2575 763.47 50.4134C762.017 53.3188 761.233 56.6871 761.118 60.5184H780.403V81.5476H761.103V160.84H736.25V81.5476H720.228V60.5184H736.25Z" fill="white"/>
    <path fill-rule="evenodd" clip-rule="evenodd"
          d="M878.811 163.025C868.676 163.025 859.603 160.809 851.591 156.379C843.641 151.888 837.39 145.697 832.838 137.808C828.347 129.857 826.101 120.845 826.101 110.77C826.101 100.635 828.347 91.5919 832.838 83.6414C837.39 75.6303 843.641 69.4095 851.591 64.9791C859.603 60.5487 868.676 58.3335 878.811 58.3335C889.007 58.3335 898.111 60.5487 906.122 64.9791C914.194 69.4095 920.475 75.5999 924.966 83.5504C929.457 91.5008 931.733 100.574 931.794 110.77C931.733 120.845 929.457 129.857 924.966 137.808C920.536 145.697 914.285 151.888 906.213 156.379C898.141 160.809 889.007 163.025 878.811 163.025ZM878.811 140.175C884.152 140.175 888.886 138.961 893.013 136.533C897.14 134.045 900.326 130.585 902.571 126.155C904.817 121.664 905.94 116.536 905.94 110.77C905.94 104.944 904.817 99.7851 902.571 95.294C900.326 90.8029 897.14 87.3436 893.013 84.9159C888.886 82.4276 884.152 81.1835 878.811 81.1835C873.531 81.1835 868.828 82.4276 864.701 84.9159C860.634 87.3436 857.478 90.8029 855.233 95.294C852.987 99.7851 851.895 104.944 851.956 110.77C851.956 116.536 853.078 121.664 855.324 126.155C857.63 130.585 860.786 134.045 864.792 136.533C868.858 138.961 873.531 140.175 878.811 140.175Z"
          fill="white"/>
    <path d="M958.649 60.5184H930.975L960.925 160.84H985.141L1004.84 96.7646L1026.11 160.84H1049.96L1080 60.5184H1054.97L1037.93 122.962L1019.1 60.5184H994.882L976.141 124.338L958.649 60.5184Z" fill="white"/>
  </g>

  <!-- × separator (centered on row midline) -->
  <text x="560" y="505" text-anchor="middle" dominant-baseline="central" fill="rgba(255,255,255,0.45)"
        font-family="system-ui, sans-serif" font-size="22" font-weight="500">×</text>

  <!-- GSAP wordmark — GREEN (#0AE448), brand-approved on dark backgrounds -->
  <g transform="translate(590, 487) scale(1.2)">
    <path fill="#0AE448" d="M23.81 14.013v.013l-1.075 4.665c-.058.264-.322.458-.626.458H20.81a.218.218 0 0 0-.208.155c-1.198 4.064-2.82 6.858-4.962 8.535-1.822 1.428-4.068 2.093-7.069 2.093-2.696 0-4.514-.867-6.056-2.578C.478 25.09-.364 21.388.146 16.926 1.065 8.549 5.41.096 13.776.096c2.545-.023 4.543.762 5.933 2.33 1.47 1.657 2.216 4.154 2.22 7.421a.55.55 0 0 1-.549.536h-6.13a.42.42 0 0 1-.407-.41c-.05-2.259-.72-3.36-2.052-3.36-2.35 0-3.736 3.19-4.471 4.959-1.027 2.47-1.55 5.152-1.447 7.824.049 1.244.249 2.994 1.43 3.718 1.047.643 2.541.217 3.446-.495.904-.711 1.632-1.942 1.938-3.065.043-.156.046-.277.005-.332-.043-.055-.162-.068-.253-.068h-1.574a.572.572 0 0 1-.438-.202.42.42 0 0 1-.087-.362l1.076-4.674c.053-.24.27-.42.537-.453v-.011h10.33c.024 0 .049 0 .072.005.268.034.457.284.452.556h.002Z"/>
    <path fill="#0AE448" d="M41.594 8.65a.548.548 0 0 1-.548.531H35.4c-.37 0-.679-.3-.679-.665 0-1.648-.57-2.45-1.736-2.45s-1.918.717-1.94 1.968c-.025 1.395.764 2.662 3.01 4.84 2.957 2.774 4.142 5.232 4.085 8.48C38.047 26.605 34.476 30 29.042 30c-2.775 0-4.895-.743-6.305-2.207-1.431-1.486-2.087-3.668-1.95-6.485a.548.548 0 0 1 .549-.53h5.84a.55.55 0 0 1 .422.209.48.48 0 0 1 .106.384c-.065 1.016.112 1.775.512 2.195.256.272.613.41 1.058.41 1.079 0 1.711-.763 1.735-2.09.02-1.148-.343-2.155-2.321-4.19-2.555-2.496-4.846-5.075-4.775-9.13.042-2.351.976-4.502 2.631-6.056C28.294.868 30.687 0 33.465 0c2.783.02 4.892.813 6.269 2.359 1.304 1.466 1.932 3.582 1.862 6.29h-.002Z"/>
    <path fill="#0AE448" d="m59.096 29.012.037-27.932a.525.525 0 0 0-.529-.533h-8.738c-.294 0-.423.252-.507.42L36.707 28.842v.005l-.005.006c-.14.343.126.71.497.71h6.108c.33 0 .548-.1.656-.308l1.213-2.915c.149-.388.177-.424.601-.424h5.836c.406 0 .415.008.408.405l-.131 2.71a.525.525 0 0 0 .529.532h6.17a.522.522 0 0 0 .403-.182.458.458 0 0 0 .104-.369Zm-10.81-9.326c-.057 0-.102-.001-.138-.005a.146.146 0 0 1-.13-.183c.012-.041.029-.095.053-.163l4.377-10.827c.038-.107.086-.212.136-.314.071-.145.157-.155.184-.047.023.09-.502 11.118-.502 11.118-.041.413-.06.43-.467.464l-3.509-.041h-.008l.003-.002Z"/>
    <path fill="#0AE448" d="M71.545.547h-4.639c-.245 0-.52.13-.585.422l-6.455 28.029a.423.423 0 0 0 .088.364.572.572 0 0 0 .437.202h5.798c.311 0 .525-.153.583-.418 0 0 .703-3.168.704-3.178.05-.247-.036-.439-.258-.555-.105-.054-.209-.108-.312-.163l-1.005-.522-1-.522-.387-.201a.186.186 0 0 1-.102-.17.199.199 0 0 1 .198-.194l3.178.014c.95.005 1.901-.062 2.836-.234 6.58-1.215 10.95-6.485 11.076-13.656.107-6.12-3.309-9.221-10.15-9.221l-.005.003Zm-1.579 16.68h-.124c-.278 0-.328-.03-.337-.04-.004-.007 1.833-8.073 1.834-8.084.047-.233.045-.367-.099-.446-.184-.102-2.866-1.516-2.866-1.516a.186.186 0 0 1-.101-.172.197.197 0 0 1 .197-.192h4.241c1.32.04 2.056 1.221 2.021 3.237-.061 3.492-1.721 7.09-4.766 7.214Z"/>
  </g>

  <!-- × separator (centered on row midline) -->
  <text x="718" y="505" text-anchor="middle" dominant-baseline="central" fill="rgba(255,255,255,0.45)"
        font-family="system-ui, sans-serif" font-size="22" font-weight="500">×</text>

  <!-- Astro logo — bumped up to scale 0.36 so its visible content matches the others optically -->
  <g transform="translate(734, 474) scale(0.36)">
    <path d="M65.7846 121.175C61.2669 117.045 59.9481 108.368 61.8303 102.082C65.0939 106.045 69.6158 107.301 74.2997 108.009C81.5305 109.103 88.6318 108.694 95.349 105.389C96.1174 105.011 96.8275 104.507 97.6672 103.998C98.2974 105.826 98.4615 107.672 98.2413 109.551C97.706 114.127 95.4288 117.662 91.8069 120.341C90.3586 121.413 88.8261 122.371 87.3303 123.382C82.7349 126.487 81.4917 130.129 83.2184 135.427C83.2594 135.556 83.2961 135.685 83.389 136C81.0427 134.95 79.3289 133.421 78.023 131.411C76.6438 129.289 75.9876 126.942 75.9531 124.403C75.9358 123.167 75.9358 121.92 75.7696 120.702C75.3638 117.732 73.9694 116.402 71.3426 116.325C68.6467 116.247 66.5141 117.913 65.9486 120.538C65.9054 120.739 65.8428 120.938 65.7803 121.172L65.7846 121.175Z" fill="white"/>
    <path d="M65.7846 121.175C61.2669 117.045 59.9481 108.368 61.8303 102.082C65.0939 106.045 69.6158 107.301 74.2997 108.009C81.5305 109.103 88.6318 108.694 95.349 105.389C96.1174 105.011 96.8275 104.507 97.6672 103.998C98.2974 105.826 98.4615 107.672 98.2413 109.551C97.706 114.127 95.4288 117.662 91.8069 120.341C90.3586 121.413 88.8261 122.371 87.3303 123.382C82.7349 126.487 81.4917 130.129 83.2184 135.427C83.2594 135.556 83.2961 135.685 83.389 136C81.0427 134.95 79.3289 133.421 78.023 131.411C76.6438 129.289 75.9876 126.942 75.9531 124.403C75.9358 123.167 75.9358 121.92 75.7696 120.702C75.3638 117.732 73.9694 116.402 71.3426 116.325C68.6467 116.247 66.5141 117.913 65.9486 120.538C65.9054 120.739 65.8428 120.938 65.7803 121.172L65.7846 121.175Z" fill="url(#astroGrad)"/>
    <path d="M40 101.034C40 101.034 53.3775 94.5177 66.7924 94.5177L76.9068 63.2155C77.2855 61.7017 78.3911 60.6729 79.6393 60.6729C80.8875 60.6729 81.9932 61.7017 82.3719 63.2155L92.4862 94.5177C108.374 94.5177 119.279 101.034 119.279 101.034C119.279 101.034 96.5558 39.133 96.5114 39.0088C95.8592 37.1787 94.7583 36 93.274 36H66.007C64.5227 36 63.4662 37.1787 62.7696 39.0088C62.7205 39.1307 40 101.034 40 101.034Z" fill="white"/>
    <path d="M181.043 81.1227C181.043 86.6079 174.22 89.8838 164.773 89.8838C158.624 89.8838 156.45 88.3601 156.45 85.1604C156.45 81.8083 159.149 80.2085 165.297 80.2085C170.846 80.2085 175.569 80.2846 181.043 80.9703V81.1227ZM181.118 74.3423C177.744 73.5805 172.645 73.1234 166.572 73.1234C148.877 73.1234 140.555 77.3135 140.555 87.065C140.555 97.1975 146.253 101.083 159.449 101.083C170.621 101.083 178.193 98.2641 180.968 91.3313H181.417C181.342 93.0074 181.268 94.6834 181.268 95.9785C181.268 99.5592 181.867 99.8639 184.791 99.8639H198.587C197.837 97.7308 197.388 91.7122 197.388 86.5317C197.388 80.9703 197.612 76.7802 197.612 71.1426C197.612 59.6388 190.715 52.3251 169.121 52.3251C159.824 52.3251 149.477 53.925 141.605 56.2867C142.354 59.4102 143.404 65.7335 143.929 69.8474C150.752 66.6477 160.424 65.2764 167.922 65.2764C178.268 65.2764 181.118 67.6381 181.118 72.4377V74.3423Z" fill="white"/>
    <path d="M218.971 84.3224C217.097 84.5509 214.547 84.5509 211.923 84.5509C209.149 84.5509 206.6 84.4748 204.875 84.2462C204.875 84.8557 204.8 85.5413 204.8 86.1508C204.8 95.6738 211.024 101.235 232.917 101.235C253.535 101.235 260.208 95.75 260.208 86.0746C260.208 76.9325 255.785 72.4377 236.216 71.4473C220.995 70.7616 219.646 69.0856 219.646 67.181C219.646 64.9717 221.595 63.8289 231.792 63.8289C242.364 63.8289 245.213 65.2764 245.213 68.3238V69.0094C246.713 68.9332 249.412 68.8571 252.186 68.8571C254.81 68.8571 257.659 68.9332 259.309 69.0856C259.309 68.3999 259.384 67.7905 259.384 67.2572C259.384 56.0581 250.086 52.4013 232.092 52.4013C211.848 52.4013 205.025 57.3533 205.025 67.0286C205.025 75.7136 210.499 81.1227 229.918 81.9607C244.238 82.4178 245.813 84.0177 245.813 86.227C245.813 88.5887 243.489 89.6553 233.442 89.6553C221.895 89.6553 218.971 88.0554 218.971 84.7795V84.3224Z" fill="white"/>
    <path d="M284.955 44.1734C279.482 49.2778 269.66 54.3821 264.187 55.7534C264.262 58.5722 264.262 63.7527 264.262 66.5715L269.285 66.6477C269.21 72.0568 269.135 78.6086 269.135 82.9511C269.135 93.0835 274.458 100.702 291.028 100.702C298.001 100.702 302.65 99.9401 308.423 98.7212C307.823 94.9881 307.148 89.2743 306.923 84.9319C303.475 86.0746 299.126 86.6841 294.327 86.6841C287.654 86.6841 284.955 84.8557 284.955 79.599C284.955 75.028 284.955 70.7616 285.03 66.8001C293.578 66.8763 302.125 67.0286 307.148 67.181C307.073 63.2194 307.223 57.5056 307.448 53.6964C300.176 53.8488 292.003 53.925 285.255 53.925C285.33 50.5729 285.405 47.3732 285.48 44.1734H284.955Z" fill="white"/>
    <path d="M329.736 64.286C329.811 60.3244 329.886 56.9724 329.961 53.6964H314.89C315.115 60.2483 315.115 66.9525 315.115 76.7802C315.115 86.6079 315.04 93.3883 314.89 99.8639H332.135C331.835 95.2929 331.76 87.5983 331.76 81.0465C331.76 70.6855 335.959 67.7143 345.481 67.7143C349.905 67.7143 353.054 68.2476 355.828 69.238C355.903 65.3526 356.653 57.8104 357.102 54.4583C354.253 53.6203 351.104 53.087 347.28 53.087C339.108 53.0108 333.11 56.3629 330.336 64.3622L329.736 64.286Z" fill="white"/>
    <path d="M404.808 76.4754C404.808 84.7795 398.81 88.6649 389.363 88.6649C379.991 88.6649 373.993 85.008 373.993 76.4754C373.993 67.9428 380.066 64.7431 389.363 64.7431C398.735 64.7431 404.808 68.1714 404.808 76.4754ZM420.478 76.0945C420.478 59.5626 407.582 52.1728 389.363 52.1728C371.069 52.1728 358.623 59.5626 358.623 76.0945C358.623 92.5503 370.244 101.388 389.288 101.388C408.482 101.388 420.478 92.5503 420.478 76.0945Z" fill="white"/>
  </g>

</svg>
